<svg xmlns="http://www.w3.org/2000/svg" viewBox="0 0 1600 900" fill="none">
  <defs>
    <linearGradient id="bg" x1="160" x2="1420" y1="120" y2="820" gradientUnits="userSpaceOnUse">
      <stop stop-color="#07111a"/>
      <stop offset="1" stop-color="#0c2030"/>
    </linearGradient>
    <linearGradient id="map" x1="420" x2="1200" y1="210" y2="650" gradientUnits="userSpaceOnUse">
      <stop stop-color="#22d3ee"/>
      <stop offset="1" stop-color="#0284c7"/>
    </linearGradient>
  </defs>
  <rect width="1600" height="900" fill="url(#bg)"/>
  <circle cx="1260" cy="164" r="212" fill="#38bdf8" fill-opacity=".14"/>
  <circle cx="286" cy="744" r="250" fill="#0ea5e9" fill-opacity=".14"/>
  <path d="M585 156l110 24 69 78 75 21 65 96 111 68-49 71 25 100-82 92-126 25-53 71-94-16-115 35-69-58-108-8-84-111-111-56 35-96-33-117 69-76 16-103 102-52 68-98z" fill="#0f3f59"/>
  <path d="M585 156l110 24 69 78 75 21 65 96 111 68-49 71 25 100-82 92-126 25-53 71-94-16-115 35-69-58-108-8-84-111-111-56 35-96-33-117 69-76 16-103 102-52 68-98z" stroke="#93c5fd" stroke-opacity=".8" stroke-width="10" stroke-linejoin="round"/>
  <path d="M396 726h788" stroke="#1e3a5f" stroke-width="18" stroke-linecap="round"/>
  <path d="M466 726V564m72 162V616m70 110V510m74 216V586m72 140V454m72 272V552m70 174V603m76 123V492m68 234V575m72 151V628m74 98V540" stroke="url(#map)" stroke-width="28" stroke-linecap="round"/>
  <g fill="#a5f3fc">
    <circle cx="704" cy="456" r="17"/>
    <circle cx="834" cy="376" r="17"/>
    <circle cx="932" cy="520" r="17"/>
    <circle cx="654" cy="576" r="17"/>
    <circle cx="1008" cy="444" r="17"/>
  </g>
  <path d="M704 456l-64 150m194-230-12 190m98-46-22 142m-244-86-88 64m442-196 82 152" stroke="#67e8f9" stroke-opacity=".42" stroke-width="8" stroke-linecap="round"/>
  <rect x="122" y="126" width="318" height="82" rx="18" fill="#09131d" fill-opacity=".8" stroke="#123652"/>
  <text x="156" y="177" fill="#dbeafe" font-family="Arial, sans-serif" font-size="42" font-weight="700">State Capitals</text>
  <text x="156" y="230" fill="#7dd3fc" font-family="Arial, sans-serif" font-size="24" font-weight="600">Map + paired capital table</text>
</svg>
