<svg xmlns="http://www.w3.org/2000/svg" viewBox="0 0 1600 900" fill="none">
  <defs>
    <linearGradient id="bg" x1="180" x2="1450" y1="120" y2="820" gradientUnits="userSpaceOnUse">
      <stop stop-color="#07120d"/>
      <stop offset="1" stop-color="#10281c"/>
    </linearGradient>
    <linearGradient id="glow" x1="370" x2="1190" y1="180" y2="640" gradientUnits="userSpaceOnUse">
      <stop stop-color="#22c55e"/>
      <stop offset="1" stop-color="#0f766e"/>
    </linearGradient>
  </defs>
  <rect width="1600" height="900" fill="url(#bg)"/>
  <circle cx="1180" cy="180" r="220" fill="#22c55e" fill-opacity=".14"/>
  <circle cx="350" cy="760" r="260" fill="#0f766e" fill-opacity=".18"/>
  <path d="M585 156l110 24 69 78 75 21 65 96 111 68-49 71 25 100-82 92-126 25-53 71-94-16-115 35-69-58-108-8-84-111-111-56 35-96-33-117 69-76 16-103 102-52 68-98z" fill="#1f5b3a"/>
  <path d="M585 156l110 24 69 78 75 21 65 96 111 68-49 71 25 100-82 92-126 25-53 71-94-16-115 35-69-58-108-8-84-111-111-56 35-96-33-117 69-76 16-103 102-52 68-98z" stroke="#9ae6b4" stroke-opacity=".7" stroke-width="10" stroke-linejoin="round"/>
  <path d="M698 210l-42 160m-126 101 226 47m152-239-13 171m-321 128 132 94m170-36-161 72m260-208 94 114m-522-274-97 119m332-8-147 134" stroke="#d1fae5" stroke-opacity=".45" stroke-width="8" stroke-linecap="round"/>
  <rect x="122" y="126" width="248" height="82" rx="18" fill="#0b1711" fill-opacity=".78" stroke="#1f5136"/>
  <text x="156" y="177" fill="#d1fae5" font-family="Arial, sans-serif" font-size="44" font-weight="700">Brazilian States</text>
  <text x="156" y="230" fill="#8dd8a9" font-family="Arial, sans-serif" font-size="24" font-weight="600">27 claimable regions</text>
</svg>
