<svg xmlns="http://www.w3.org/2000/svg" viewBox="0 0 1600 900" fill="none">
  <defs>
    <linearGradient id="bg" x1="120" x2="1460" y1="80" y2="840" gradientUnits="userSpaceOnUse">
      <stop stop-color="#070b16"/>
      <stop offset="1" stop-color="#101b34"/>
    </linearGradient>
    <linearGradient id="cup" x1="608" x2="993" y1="206" y2="718" gradientUnits="userSpaceOnUse">
      <stop stop-color="#f5f7fb"/>
      <stop offset=".45" stop-color="#b8c2d8"/>
      <stop offset="1" stop-color="#7a889f"/>
    </linearGradient>
    <radialGradient id="glow" cx="0" cy="0" r="1" gradientTransform="translate(800 324) rotate(90) scale(330 410)" gradientUnits="userSpaceOnUse">
      <stop stop-color="#6aa3ff" stop-opacity=".28"/>
      <stop offset="1" stop-color="#6aa3ff" stop-opacity="0"/>
    </radialGradient>
  </defs>
  <rect width="1600" height="900" fill="url(#bg)"/>
  <circle cx="1260" cy="152" r="216" fill="#1d4ed8" fill-opacity=".18"/>
  <circle cx="286" cy="764" r="248" fill="#2563eb" fill-opacity=".14"/>
  <ellipse cx="800" cy="324" rx="410" ry="330" fill="url(#glow)"/>
  <g opacity=".7">
    <path d="M248 708h1104" stroke="#18315f" stroke-width="18" stroke-linecap="round"/>
    <path d="M336 764h928" stroke="#22498f" stroke-width="10" stroke-linecap="round"/>
  </g>
  <g opacity=".55" stroke="#89b4ff" stroke-width="12" stroke-linecap="round">
    <path d="M364 168l86 58"/>
    <path d="M1236 168l-86 58"/>
    <path d="M800 110v94"/>
    <path d="M518 126l42 86"/>
    <path d="M1082 126l-42 86"/>
  </g>
  <g fill="url(#cup)">
    <path d="M646 222h308l-30 217c-14 102-93 183-194 200v60h138v70H732v-70h138v-60c-101-17-180-98-194-200l-30-217z"/>
    <path d="M676 250h248l-24 174c-10 73-64 128-130 134l-23 2-23-2c-66-6-120-61-130-134l-24-174h106z" opacity=".55"/>
    <path d="M646 260h-94c-14 0-25 11-25 25 0 108 37 184 118 233l39-58c-50-30-74-82-78-144h40V260z"/>
    <path d="M954 260h94c14 0 25 11 25 25 0 108-37 184-118 233l-39-58c50-30 74-82 78-144h-40V260z"/>
  </g>
  <g stroke="#dbe6ff" stroke-opacity=".88" stroke-width="10" stroke-linecap="round" stroke-linejoin="round">
    <path d="M694 250c18 78 40 160 106 220"/>
    <path d="M906 250c-18 78-40 160-106 220"/>
    <path d="M646 286c-17 53-46 95-89 132"/>
    <path d="M954 286c17 53 46 95 89 132"/>
  </g>
  <rect x="120" y="122" width="426" height="88" rx="18" fill="#09101d" fill-opacity=".8" stroke="#213a6b"/>
  <text x="156" y="176" fill="#edf3ff" font-family="Arial, sans-serif" font-size="42" font-weight="700">Champions League</text>
  <text x="156" y="230" fill="#9cbcff" font-family="Arial, sans-serif" font-size="24" font-weight="600">Winners and runners-up</text>
</svg>
